<svg xmlns="http://www.w3.org/2000/svg" viewBox="0 0 108 108">
  <rect width="108" height="108" rx="24" fill="#0D1622"/>
  <path d="M54 19c20.5 0 37 16.5 37 37S74.5 93 54 93 17 76.5 17 56 33.5 19 54 19Z" fill="#172232"/>
  <path d="M30 89 47 57h14l17 32H30Z" fill="#101925"/>
  <path d="M53 59h2l3 30h-8l3-30Z" fill="#EAF2FF"/>
  <path d="M26 59c5-11 15-18 28-18s23 7 28 18" fill="none" stroke="#1997FB" stroke-width="5" stroke-linecap="round"/>
  <path d="M24 54h10l5-12h24c10 0 17 7 18 17h-7c-1-5-5-9-11-9H42l-4 11H24v-7Z" fill="#EAF2FF"/>
  <path d="M43 47h12v8H40l3-8Z" fill="#C8D3DF"/>
  <path d="M59 47h11c3 0 5 2 6 5l1 3H59v-8Z" fill="#C8D3DF"/>
  <path d="M36 62a7 7 0 1 0 0 14 7 7 0 0 0 0-14Zm36 0a7 7 0 1 0 0 14 7 7 0 0 0 0-14Z" fill="#0D1622"/>
  <path d="M36 66a3 3 0 1 0 0 6 3 3 0 0 0 0-6Zm36 0a3 3 0 1 0 0 6 3 3 0 0 0 0-6Z" fill="#35D07F"/>
  <path d="M81 25c9 10 4 23-8 27-3-12 0-22 8-27Z" fill="#35D07F"/>
  <path d="M74 48c2-7 5-13 9-19" fill="none" stroke="#0D1622" stroke-width="3" stroke-linecap="round"/>
</svg>
