<svg xmlns="http://www.w3.org/2000/svg" viewBox="0 0 108 108">
  <rect width="108" height="108" rx="24" fill="#0D1622"/>
  <path d="M18 86 43 19h22l25 67H18Z" fill="#172232"/>
  <path d="M51 24h6l6 62H45l6-62Z" fill="#EAF2FF"/>
  <path d="M54 32v11m0 11v11m0 11v9" stroke="#0D1622" stroke-width="4" stroke-linecap="round"/>
  <path d="M25 62c7-8 17-12 29-12s22 4 29 12" fill="none" stroke="#1997FB" stroke-width="5" stroke-linecap="round"/>
  <path d="M29 51h9l4-10h23c8 0 14 6 15 14h-7c-1-4-4-7-9-7H46l-3 10H29v-7Z" fill="#EAF2FF"/>
  <path d="M45 45h11v7H42l3-7Zm15 0h9c3 0 5 2 6 7H60v-7Z" fill="#1997FB"/>
  <path d="M39 59a6 6 0 1 0 0 12 6 6 0 0 0 0-12Zm34 0a6 6 0 1 0 0 12 6 6 0 0 0 0-12Z" fill="#0D1622"/>
  <path d="M80 25c11 7 10 21-1 29-6-10-5-20 1-29Z" fill="#35D07F"/>
  <path d="M77 51c0-8 2-15 5-21" fill="none" stroke="#0D1622" stroke-width="3" stroke-linecap="round"/>
</svg>
